<svg width="267" height="59" viewBox="0 0 267 59" fill="none" xmlns="http://www.w3.org/2000/svg">
<path d="M12.144 47.384C10 47.384 7.904 47.128 5.856 46.616C3.808 46.072 2.176 45.4 0.96 44.6L3.456 39.224C4.608 39.96 6 40.568 7.632 41.048C9.264 41.496 10.864 41.72 12.432 41.72C15.6 41.72 17.184 40.936 17.184 39.368C17.184 38.632 16.752 38.104 15.888 37.784C15.024 37.464 13.696 37.192 11.904 36.968C9.792 36.648 8.048 36.28 6.672 35.864C5.296 35.448 4.096 34.712 3.072 33.656C2.08 32.6 1.584 31.096 1.584 29.144C1.584 27.512 2.048 26.072 2.976 24.824C3.936 23.544 5.312 22.552 7.104 21.848C8.928 21.144 11.072 20.792 13.536 20.792C15.36 20.792 17.168 21 18.96 21.416C20.784 21.8 22.288 22.344 23.472 23.048L20.976 28.376C18.704 27.096 16.224 26.456 13.536 26.456C11.936 26.456 10.736 26.68 9.936 27.128C9.136 27.576 8.736 28.152 8.736 28.856C8.736 29.656 9.168 30.216 10.032 30.536C10.896 30.856 12.272 31.16 14.16 31.448C16.272 31.8 18 32.184 19.344 32.6C20.688 32.984 21.856 33.704 22.848 34.76C23.84 35.816 24.336 37.288 24.336 39.176C24.336 40.776 23.856 42.2 22.896 43.448C21.936 44.696 20.528 45.672 18.672 46.376C16.848 47.048 14.672 47.384 12.144 47.384ZM54.684 21.176V47H47.532V44.024C45.676 46.264 42.988 47.384 39.468 47.384C37.036 47.384 34.828 46.84 32.844 45.752C30.892 44.664 29.356 43.112 28.236 41.096C27.116 39.08 26.556 36.744 26.556 34.088C26.556 31.432 27.116 29.096 28.236 27.08C29.356 25.064 30.892 23.512 32.844 22.424C34.828 21.336 37.036 20.792 39.468 20.792C42.764 20.792 45.34 21.832 47.196 23.912V21.176H54.684ZM40.764 41.24C42.652 41.24 44.22 40.6 45.468 39.32C46.716 38.008 47.34 36.264 47.34 34.088C47.34 31.912 46.716 30.184 45.468 28.904C44.22 27.592 42.652 26.936 40.764 26.936C38.844 26.936 37.26 27.592 36.012 28.904C34.764 30.184 34.14 31.912 34.14 34.088C34.14 36.264 34.764 38.008 36.012 39.32C37.26 40.6 38.844 41.24 40.764 41.24ZM94.2086 20.792C97.4406 20.792 100.001 21.752 101.889 23.672C103.809 25.56 104.769 28.408 104.769 32.216V47H97.2806V33.368C97.2806 31.32 96.8486 29.8 95.9846 28.808C95.1526 27.784 93.9526 27.272 92.3846 27.272C90.6246 27.272 89.2326 27.848 88.2086 29C87.1846 30.12 86.6726 31.8 86.6726 34.04V47H79.1846V33.368C79.1846 29.304 77.5526 27.272 74.2886 27.272C72.5606 27.272 71.1846 27.848 70.1606 29C69.1366 30.12 68.6246 31.8 68.6246 34.04V47H61.1366V21.176H68.2886V24.152C69.2486 23.064 70.4166 22.232 71.7926 21.656C73.2006 21.08 74.7366 20.792 76.4006 20.792C78.2246 20.792 79.8726 21.16 81.3446 21.896C82.8166 22.6 84.0006 23.64 84.8966 25.016C85.9526 23.672 87.2806 22.632 88.8806 21.896C90.5126 21.16 92.2886 20.792 94.2086 20.792ZM111 21.176H118.488V47H111V21.176ZM114.744 17.576C113.368 17.576 112.248 17.176 111.384 16.376C110.52 15.576 110.088 14.584 110.088 13.4C110.088 12.216 110.52 11.224 111.384 10.424C112.248 9.624 113.368 9.224 114.744 9.224C116.12 9.224 117.24 9.608 118.104 10.376C118.968 11.144 119.4 12.104 119.4 13.256C119.4 14.504 118.968 15.544 118.104 16.376C117.24 17.176 116.12 17.576 114.744 17.576ZM147.696 34.328L141.744 39.8V47H138.336V11.384H141.744V35.528L156.816 21.752H161.04L150.24 32.072L162.048 47H157.872L147.696 34.328ZM188.968 21.752V47H185.704V42.392C184.808 43.928 183.576 45.128 182.008 45.992C180.44 46.824 178.648 47.24 176.632 47.24C173.336 47.24 170.728 46.328 168.808 44.504C166.92 42.648 165.976 39.944 165.976 36.392V21.752H169.384V36.056C169.384 38.712 170.04 40.728 171.352 42.104C172.664 43.48 174.536 44.168 176.968 44.168C179.624 44.168 181.72 43.368 183.256 41.768C184.792 40.136 185.56 37.88 185.56 35V21.752H188.968ZM221.073 11.384V47H217.809V42.008C216.785 43.704 215.425 45 213.729 45.896C212.065 46.792 210.177 47.24 208.065 47.24C205.697 47.24 203.553 46.696 201.633 45.608C199.713 44.52 198.209 43 197.121 41.048C196.033 39.096 195.489 36.872 195.489 34.376C195.489 31.88 196.033 29.656 197.121 27.704C198.209 25.752 199.713 24.248 201.633 23.192C203.553 22.104 205.697 21.56 208.065 21.56C210.113 21.56 211.953 21.992 213.585 22.856C215.249 23.688 216.609 24.92 217.665 26.552V11.384H221.073ZM208.353 44.216C210.113 44.216 211.697 43.816 213.105 43.016C214.545 42.184 215.665 41.016 216.465 39.512C217.297 38.008 217.713 36.296 217.713 34.376C217.713 32.456 217.297 30.744 216.465 29.24C215.665 27.736 214.545 26.584 213.105 25.784C211.697 24.952 210.113 24.536 208.353 24.536C206.561 24.536 204.945 24.952 203.505 25.784C202.097 26.584 200.977 27.736 200.145 29.24C199.345 30.744 198.945 32.456 198.945 34.376C198.945 36.296 199.345 38.008 200.145 39.512C200.977 41.016 202.097 42.184 203.505 43.016C204.945 43.816 206.561 44.216 208.353 44.216ZM236.852 47.24C234.804 47.24 232.836 46.952 230.948 46.376C229.092 45.768 227.636 45.016 226.58 44.12L228.116 41.432C229.172 42.264 230.5 42.952 232.1 43.496C233.7 44.008 235.364 44.264 237.092 44.264C239.396 44.264 241.092 43.912 242.18 43.208C243.3 42.472 243.86 41.448 243.86 40.136C243.86 39.208 243.556 38.488 242.948 37.976C242.34 37.432 241.572 37.032 240.644 36.776C239.716 36.488 238.484 36.216 236.948 35.96C234.9 35.576 233.252 35.192 232.004 34.808C230.756 34.392 229.684 33.704 228.788 32.744C227.924 31.784 227.492 30.456 227.492 28.76C227.492 26.648 228.372 24.92 230.132 23.576C231.892 22.232 234.34 21.56 237.476 21.56C239.108 21.56 240.74 21.784 242.372 22.232C244.004 22.648 245.348 23.208 246.404 23.912L244.916 26.648C242.836 25.208 240.356 24.488 237.476 24.488C235.3 24.488 233.652 24.872 232.532 25.64C231.444 26.408 230.9 27.416 230.9 28.664C230.9 29.624 231.204 30.392 231.812 30.968C232.452 31.544 233.236 31.976 234.164 32.264C235.092 32.52 236.372 32.792 238.004 33.08C240.02 33.464 241.636 33.848 242.852 34.232C244.068 34.616 245.108 35.272 245.972 36.2C246.836 37.128 247.268 38.408 247.268 40.04C247.268 42.248 246.34 44.008 244.484 45.32C242.66 46.6 240.116 47.24 236.852 47.24ZM253.088 21.752H256.496V47H253.088V21.752ZM254.816 16.232C254.112 16.232 253.52 15.992 253.04 15.512C252.56 15.032 252.32 14.456 252.32 13.784C252.32 13.144 252.56 12.584 253.04 12.104C253.52 11.624 254.112 11.384 254.816 11.384C255.52 11.384 256.112 11.624 256.592 12.104C257.072 12.552 257.312 13.096 257.312 13.736C257.312 14.44 257.072 15.032 256.592 15.512C256.112 15.992 255.52 16.232 254.816 16.232Z" fill="white"/>
<path d="M262 47.356V43H266.136V47.356H262Z" fill="#F13024"/>
</svg>
